<svg id="Layer_1" data-name="Layer 1" xmlns="http://www.w3.org/2000/svg" xmlns:xlink="http://www.w3.org/1999/xlink" viewBox="0 0 450.74 287.98"><defs><style>.cls-1,.cls-5{fill:none;}.cls-2{opacity:0.25;}.cls-3{clip-path:url(#clip-path);}.cls-4{fill:#e2e0df;}.cls-5{stroke:#545554;stroke-miterlimit:10;stroke-width:0.72px;}</style><clipPath id="clip-path" transform="translate(-0.15 -0.01)"><rect class="cls-1" x="0.14" width="450.75" height="288"/></clipPath></defs><g class="cls-2"><g class="cls-3"><path class="cls-4" d="M450.31,27.76q-17.52,39.32-58.88,75.65-1.68,21.61-19.29,44.44t-69.4,70.71Q266,252.65,240.13,281.91l-4.66,5a390.86,390.86,0,0,0,2.24-42.3,473.61,473.61,0,0,0-3.54-60.74q-64.09,25.15-64.1,68,0,11.57,7.27,25.71-20-1.68-19.94-22,0-21.62,20.87-44.35t55-38q-7.83-66.7-35-104.72-37.83-52.9-94.84-52.92-40.07,0-66.43,28.79T10.57,117a103.21,103.21,0,0,0,12.58,50.12A94.9,94.9,0,0,0,57.9,203.65a110.45,110.45,0,0,0,58.69,16.77,95.79,95.79,0,0,0,26.46-3.91l1.12,3.35A98.66,98.66,0,0,1,98.52,231q-41,0-69.5-31T.51,124.46q0-52.54,34.19-88.32T119.2.37A113.83,113.83,0,0,1,180.6,18q28.23,17.61,46.3,49.85Q247.21,103.6,255.78,164a35.17,35.17,0,0,1,4.29-1.49l37.64-13q41.18-14.35,70.24-35.78l3.73-2.79q-2.24-16.77-16-31.12a84.27,84.27,0,0,0-31-20.31q-18.35-7.08-49.28-10.62l-6.71-.74a99.07,99.07,0,0,0,17.14-19q16.59,1.31,48.64,1.3,78.06,0,115.89-2.6M370,121.48q-36,30.37-77.32,43.41L260.44,175q-.18,0-3.54,1.11,1.31,14.53,1.31,34.66,0,25-1.5,42.11,11.75-12.48,26.28-26.08l19-18.08q34.67-32.6,48.82-50.77T370,121.48m57.58-78.07-6.15.18-35.77.56-33.91.56h-7.83Q387.51,63,390.87,94.83a147.32,147.32,0,0,0,36.71-51.42" transform="translate(-0.15 -0.01)"/><path class="cls-5" d="M450.31,27.76q-17.52,39.32-58.88,75.65-1.68,21.61-19.29,44.44t-69.4,70.71Q266,252.65,240.13,281.91l-4.66,5a390.86,390.86,0,0,0,2.24-42.3,473.61,473.61,0,0,0-3.54-60.74q-64.09,25.15-64.1,68,0,11.57,7.27,25.71-20-1.68-19.94-22,0-21.62,20.87-44.35t55-38q-7.83-66.7-35-104.72-37.83-52.9-94.84-52.92-40.07,0-66.43,28.79T10.57,117a103.21,103.21,0,0,0,12.58,50.12A94.9,94.9,0,0,0,57.9,203.65a110.45,110.45,0,0,0,58.69,16.77,95.79,95.79,0,0,0,26.46-3.91l1.12,3.35A98.66,98.66,0,0,1,98.52,231q-41,0-69.5-31T.51,124.46q0-52.54,34.19-88.32T119.2.37A113.83,113.83,0,0,1,180.6,18q28.23,17.61,46.3,49.85Q247.21,103.6,255.78,164a35.17,35.17,0,0,1,4.29-1.49l37.64-13q41.18-14.35,70.24-35.78l3.73-2.79q-2.24-16.77-16-31.12a84.27,84.27,0,0,0-31-20.31q-18.35-7.08-49.28-10.62l-6.71-.74a99.07,99.07,0,0,0,17.14-19q16.59,1.31,48.64,1.3Q412.48,30.36,450.31,27.76ZM370,121.48q-36,30.37-77.32,43.41L260.44,175q-.18,0-3.54,1.11,1.31,14.53,1.31,34.66,0,25-1.5,42.11,11.75-12.48,26.28-26.08l19-18.08q34.67-32.6,48.82-50.77T370,121.48Zm57.58-78.07-6.15.18-35.77.56-33.91.56h-7.83Q387.51,63,390.87,94.83A147.32,147.32,0,0,0,427.58,43.41Z" transform="translate(-0.15 -0.01)"/></g></g></svg>